<?xml version="1.0" standalone="no"?>
<!DOCTYPE svg PUBLIC "-//W3C//DTD SVG 20010904//EN"
 "http://www.w3.org/TR/2001/REC-SVG-20010904/DTD/svg10.dtd">
<svg version="1.0" xmlns="http://www.w3.org/2000/svg"
 width="500.000000pt" height="500.000000pt" viewBox="0 0 500.000000 500.000000"
 preserveAspectRatio="xMidYMid meet">

<g transform="translate(0.000000,500.000000) scale(0.100000,-0.100000)"
fill="#000000" stroke="none">
<path d="M2321 3979 c-283 -38 -581 -177 -793 -369 -37 -34 -67 -64 -65 -68 1
-4 -1 -7 -5 -7 -14 0 -58 -50 -54 -61 3 -7 -3 -18 -12 -26 -16 -12 -16 -11 -2
7 15 20 15 20 -9 0 -50 -43 -243 -366 -228 -381 2 -3 10 9 17 26 12 28 14 29
26 13 13 -17 14 -17 7 1 -4 13 -3 17 5 12 8 -5 10 -1 6 11 -5 16 -4 16 10 -1
17 -22 22 -41 7 -32 -5 4 -7 -4 -4 -16 4 -19 3 -21 -7 -8 -10 13 -11 12 -6 -4
9 -28 -13 -93 -26 -75 -7 10 -8 8 -3 -8 3 -12 -1 -46 -9 -74 -9 -29 -16 -60
-15 -68 1 -9 4 -5 8 9 6 21 10 14 25 -45 26 -104 34 -168 37 -290 3 -109 3
-109 9 -35 5 72 9 73 23 5 8 -35 7 50 0 101 l-7 49 -7 -35 c-5 -27 -7 -21 -8
32 0 36 -4 75 -7 85 -3 10 2 7 10 -7 17 -27 21 -15 7 22 -4 13 -11 46 -15 73
l-6 50 15 -40 c21 -58 45 -229 42 -304 -1 -41 2 -66 9 -68 8 -3 10 -18 7 -44
-5 -32 -2 -43 17 -59 13 -12 20 -26 16 -35 -3 -9 -2 -13 4 -10 13 8 13 42 0
50 -5 3 -10 13 -10 21 0 8 5 12 10 9 13 -8 13 15 0 35 -8 12 -10 12 -10 -5 0
-11 -5 -27 -11 -35 -7 -11 -8 -1 -4 36 4 33 3 54 -4 59 -6 3 -11 21 -10 38 0
18 3 25 6 17 3 -8 13 -33 23 -55 10 -22 20 -47 24 -55 3 -8 3 3 0 25 -7 51 2
43 14 -13 7 -29 7 -40 -1 -35 -6 4 -8 0 -4 -11 4 -10 3 -15 -3 -11 -13 8 -13
-18 0 -31 7 -7 7 -21 -1 -43 -10 -29 -9 -34 10 -47 11 -8 21 -20 21 -26 0 -6
-7 -5 -17 3 -17 13 -17 13 0 -7 20 -24 12 -39 -12 -23 -9 6 -4 0 10 -13 19
-18 24 -30 18 -39 -5 -8 -9 -18 -8 -24 0 -5 7 2 15 18 8 15 19 27 24 27 5 0 1
-15 -10 -32 -11 -18 -20 -37 -20 -43 1 -5 8 2 16 18 13 25 16 26 30 12 9 -9
13 -23 10 -32 -6 -14 -4 -14 11 -2 14 12 16 12 8 0 -14 -24 -13 -71 2 -71 9 0
12 8 9 26 -3 15 -2 24 1 20 12 -12 12 -40 0 -55 -10 -12 -9 -14 6 -8 11 4 16
3 12 -3 -3 -6 2 -10 11 -10 10 0 14 -3 11 -7 -4 -3 1 -12 11 -19 9 -7 17 -20
17 -30 0 -10 12 -21 30 -27 17 -5 37 -15 45 -22 8 -7 40 -20 70 -30 30 -9 72
-28 94 -42 21 -14 48 -26 60 -28 11 -1 42 -12 69 -23 26 -12 47 -19 47 -16 0
3 -57 32 -127 65 -71 34 -150 76 -178 94 -70 46 -146 130 -178 195 -92 189
-141 653 -93 895 53 273 149 462 320 631 108 106 221 184 368 254 152 73 230
90 404 90 161 0 256 -11 391 -45 526 -134 948 -579 1057 -1117 62 -303 28
-603 -94 -848 -54 -107 -91 -153 -159 -199 -33 -23 -64 -47 -68 -55 -4 -7 -26
-25 -47 -40 -21 -14 -35 -26 -30 -26 4 0 -1 -7 -12 -15 -10 -8 -14 -15 -9 -15
6 0 3 -5 -5 -10 -8 -5 -25 -7 -37 -4 -12 3 -29 1 -39 -4 -16 -9 -15 -10 6 -17
18 -6 20 -9 9 -16 -8 -5 -21 -8 -29 -8 -10 0 -8 3 5 9 35 15 -4 11 -58 -6 -58
-19 -90 -39 -36 -24 41 12 39 12 39 1 0 -14 -80 -42 -104 -36 -20 5 -20 5 1
-6 18 -10 31 -9 64 4 22 9 48 13 57 11 14 -5 15 -4 2 5 -8 5 -11 13 -8 16 4 4
17 0 30 -9 12 -9 20 -16 18 -17 -3 0 -14 -3 -25 -5 -11 -3 -32 -6 -47 -8 -15
-1 -34 -8 -42 -15 -8 -7 -21 -9 -27 -5 -8 5 -9 3 -4 -6 6 -10 2 -12 -16 -7
-13 3 -48 -1 -79 -9 -77 -22 -83 -24 -78 -29 3 -3 34 4 69 15 71 22 92 25 69
10 -18 -13 35 -3 62 11 9 5 25 6 35 3 15 -5 15 -4 3 5 -16 11 -7 27 10 16 6
-4 9 -13 6 -21 -7 -19 3 -18 28 4 20 16 20 16 7 -1 -18 -23 -57 -46 -46 -26 6
9 3 10 -11 4 -10 -4 -26 -9 -34 -10 -23 -4 -107 -44 -92 -44 7 -1 28 6 48 14
22 9 32 10 28 3 -5 -8 -1 -9 12 -4 10 4 28 9 39 10 11 2 34 10 52 19 43 23 53
21 23 -4 -14 -11 -19 -18 -13 -14 9 4 11 1 7 -9 -3 -9 -11 -13 -18 -9 -18 12
-36 12 -36 2 0 -6 -5 -7 -12 -3 -7 4 -8 3 -4 -4 5 -9 13 -9 26 -2 16 9 18 8
14 -5 -4 -9 -9 -13 -12 -11 -3 3 -11 -2 -19 -12 -8 -9 -12 -12 -10 -7 3 6 -1
18 -8 28 -11 16 -17 17 -35 7 -15 -8 -20 -8 -16 -1 10 16 -10 13 -24 -3 -6 -8
-31 -23 -56 -32 -24 -9 -44 -21 -44 -26 0 -6 -7 -7 -16 -4 -8 3 -12 2 -9 -3 7
-12 -27 -23 -46 -16 -8 2 -63 -8 -124 -24 -60 -16 -104 -30 -97 -30 7 -1 58
10 112 24 76 19 105 23 125 15 34 -13 44 -13 25 1 -12 9 -11 10 8 6 12 -3 20
-2 18 2 -3 3 9 14 25 23 16 10 31 13 34 7 4 -5 1 -9 -6 -9 -7 0 -10 -2 -7 -5
3 -3 13 -2 22 1 14 5 15 9 4 15 -22 15 11 30 36 17 20 -11 20 -10 6 7 -8 10
-9 16 -3 11 7 -4 22 -2 33 4 24 13 41 5 34 -15 -4 -8 -10 -12 -15 -9 -5 3 -7
10 -4 15 3 5 -1 6 -9 3 -13 -5 -12 -8 1 -24 13 -15 21 -17 37 -9 20 10 20 10
2 -5 -18 -14 -21 -14 -38 1 -12 10 -18 12 -18 4 0 -7 -5 -9 -12 -5 -8 4 -10 3
-5 -2 5 -5 13 -10 18 -10 5 -1 12 -2 15 -3 4 0 -10 -17 -30 -36 -24 -22 -42
-32 -53 -28 -11 4 -14 3 -9 -5 5 -8 1 -10 -10 -5 -12 4 -15 3 -10 -5 5 -8 2
-10 -9 -5 -12 4 -13 8 -5 13 9 6 9 9 -1 13 -8 2 -3 5 11 6 46 2 69 5 65 10 -3
2 2 9 11 16 14 10 14 13 -3 26 -16 13 -17 13 -4 -3 15 -21 2 -24 -19 -5 -12
10 -12 9 -1 -5 14 -19 2 -25 -15 -8 -6 6 -18 8 -28 4 -15 -6 -15 -7 1 -21 17
-14 17 -14 -2 -8 -53 18 -51 18 -35 6 13 -9 13 -11 0 -11 -13 0 -13 -1 0 -10
13 -8 13 -10 1 -10 -11 0 -10 -4 5 -16 17 -14 17 -15 1 -10 -12 4 -16 2 -11
-6 5 -8 2 -9 -10 -5 -11 4 -15 3 -10 -4 4 -7 0 -9 -12 -5 -11 3 -26 1 -34 -4
-12 -8 -12 -10 -1 -10 26 0 4 -11 -96 -46 -90 -32 -92 -34 -15 -18 22 5 24 3
12 -6 -13 -10 -12 -11 3 -6 10 3 22 6 25 6 4 0 1 4 -7 9 -10 6 -4 12 23 21 19
6 41 8 47 4 8 -5 9 -3 4 6 -6 10 -4 12 9 7 10 -4 15 -3 11 3 -4 6 4 9 17 7 15
-1 22 3 20 12 -2 8 3 11 13 8 8 -4 15 -2 15 4 0 6 5 7 10 4 6 -3 10 -1 10 5 0
6 4 9 9 5 17 -10 193 118 293 213 55 53 126 132 159 176 33 45 63 86 67 91 31
40 108 179 141 257 58 135 90 255 108 407 50 404 -83 832 -356 1146 -213 245
-498 409 -826 476 -117 24 -343 33 -454 18z m-881 -513 c0 -2 -8 -10 -17 -17
-16 -13 -17 -12 -4 4 13 16 21 21 21 13z m-101 -91 c-23 -31 -38 -59 -34 -63
4 -4 15 4 24 17 9 14 24 34 33 45 16 20 17 20 14 2 -2 -11 -8 -22 -14 -24 -7
-2 -10 -8 -6 -13 3 -5 -8 -21 -23 -36 -15 -14 -22 -23 -15 -19 7 5 -1 -20 -18
-54 -17 -34 -29 -65 -26 -68 8 -7 9 -6 45 66 17 34 33 62 36 62 3 0 -12 -34
-32 -75 -29 -58 -40 -72 -50 -63 -15 12 -18 -3 -4 -17 6 -6 -5 -51 -26 -115
-20 -58 -36 -124 -37 -148 l-1 -43 -13 32 c-11 26 -11 41 -2 76 7 23 17 40 22
37 6 -4 7 2 3 16 -5 16 -4 20 5 15 9 -5 10 -1 5 15 -5 16 -4 20 5 15 9 -5 10
-1 5 15 -5 17 -4 21 6 15 9 -6 11 -3 6 8 -3 10 -2 17 4 17 6 0 7 5 4 10 -3 6
-2 10 4 10 6 0 7 8 4 17 -5 12 -8 13 -11 4 -3 -8 -11 -3 -22 14 -18 27 -18 27
-25 5 -4 -12 -9 -19 -12 -16 -13 13 161 296 182 296 3 0 -13 -25 -36 -55z m62
42 c-6 -8 -7 -18 -3 -22 4 -5 1 -5 -6 -1 -10 6 -10 11 -1 22 6 8 14 14 16 14
3 0 0 -6 -6 -13z m-38 -382 c-3 -9 -8 -14 -10 -11 -3 3 -2 9 2 15 9 16 15 13
8 -4z m-22 -98 c-10 -9 -11 -8 -5 6 3 10 9 15 12 12 3 -3 0 -11 -7 -18z m-72
-37 c0 -10 -3 -8 -9 5 -12 27 -12 43 0 25 5 -8 9 -22 9 -30z m38 18 c-3 -8 -6
-5 -6 6 -1 11 2 17 5 13 3 -3 4 -12 1 -19z m17 -298 c19 -99 19 -102 1 -69
-26 47 -46 197 -38 274 l7 70 8 -96 c3 -53 14 -133 22 -179z m-55 207 c1 -5
-3 -5 -9 -2 -5 3 -10 16 -9 28 0 21 1 21 9 2 5 -11 9 -24 9 -28z m-42 -64 c-3
-10 -5 -4 -5 12 0 17 2 24 5 18 2 -7 2 -21 0 -30z m120 -155 c-3 -7 -5 -2 -5
12 0 14 2 19 5 13 2 -7 2 -19 0 -25z m0 -110 c-3 -8 -6 -5 -6 6 -1 11 2 17 5
13 3 -3 4 -12 1 -19z m43 -173 c-10 -12 -9 -20 5 -41 22 -34 6 -52 -21 -23
-14 16 -15 23 -6 26 6 3 9 9 6 14 -5 9 12 39 23 39 3 0 0 -7 -7 -15z m18 -120
c1 -14 -3 -25 -8 -25 -8 0 -8 23 -1 48 3 9 7 -2 9 -23z m1807 -935 c3 -5 2
-10 -4 -10 -5 0 -13 5 -16 10 -3 6 -2 10 4 10 5 0 13 -4 16 -10z m-95 -100 c8
-5 11 -10 5 -10 -5 0 -17 5 -25 10 -8 5 -10 10 -5 10 6 0 17 -5 25 -10z"/>
<path d="M1268 3267 c-49 -79 -51 -85 -33 -110 l17 -22 -7 24 c-6 18 -4 22 6
16 11 -6 12 -5 2 6 -19 20 -16 33 5 18 14 -11 15 -11 5 1 -18 19 -16 35 1 21
12 -10 17 -8 26 10 7 12 8 19 2 15 -6 -3 -13 -2 -17 4 -5 9 6 14 26 12 6 -1 5
35 -2 42 -2 3 -16 -14 -31 -37z m12 -38 c0 -6 -4 -7 -10 -4 -5 3 -10 11 -10
16 0 6 5 7 10 4 6 -3 10 -11 10 -16z"/>
<path d="M2220 3675 c0 -51 3 -65 15 -65 9 0 15 9 15 24 0 17 7 26 24 30 52
13 36 76 -19 76 l-35 0 0 -65z m58 28 c-5 -26 -38 -29 -38 -4 0 15 6 21 21 21
14 0 19 -5 17 -17z"/>
<path d="M2523 3720 c-46 -19 -55 -69 -18 -105 31 -32 59 -32 91 1 20 19 24
31 19 52 -11 46 -50 68 -92 52z m57 -35 c26 -32 -13 -81 -47 -59 -35 22 -23
74 17 74 10 0 23 -7 30 -15z"/>
<path d="M2790 3595 c-22 -55 -20 -86 4 -53 14 20 26 14 26 -13 0 -9 7 -20 16
-23 13 -5 15 -1 10 20 -5 20 -2 30 14 41 29 21 26 61 -6 73 -39 15 -40 14 -64
-45z m70 9 c0 -15 -27 -30 -36 -21 -3 3 -3 15 1 26 7 22 35 18 35 -5z"/>
<path d="M3057 3533 c-4 -3 0 -14 8 -23 13 -14 12 -20 -10 -52 -14 -21 -25
-42 -25 -47 0 -22 18 -10 44 30 19 27 32 39 43 35 24 -10 36 5 16 19 -53 36
-70 44 -76 38z"/>
<path d="M3253 3320 c-24 -27 -43 -51 -43 -54 0 -12 28 -6 40 9 12 14 15 14
30 0 14 -12 20 -13 26 -4 4 7 -1 18 -11 26 -15 10 -16 16 -7 25 9 9 16 7 31
-6 30 -27 33 -2 3 27 l-27 25 -42 -48z"/>
<path d="M3417 3122 c-25 -27 -22 -78 5 -96 46 -33 108 -4 108 49 0 55 -77 87
-113 47z m67 -15 c11 -8 17 -23 14 -38 -2 -19 -9 -24 -32 -24 -40 0 -56 27
-32 54 22 25 26 25 50 8z"/>
<path d="M3540 3120 c19 -13 30 -13 30 0 0 6 -10 10 -22 10 -19 0 -20 -2 -8
-10z"/>
<path d="M1186 3087 c3 -10 9 -15 12 -12 3 3 0 11 -7 18 -10 9 -11 8 -5 -6z"/>
<path d="M1166 3064 c-4 -9 -4 -19 -1 -22 3 -3 5 0 5 7 0 7 4 9 10 6 6 -3 7 1
4 9 -8 20 -10 20 -18 0z"/>
<path d="M1975 3065 l-30 -13 38 -1 c21 -1 52 -8 68 -17 29 -15 89 -96 89
-120 0 -25 -209 -489 -230 -511 -11 -12 -31 -24 -43 -26 -12 -2 23 -5 78 -5
73 -1 94 2 76 9 -20 8 -23 14 -18 47 3 20 15 58 27 85 l21 47 113 0 113 0 27
-73 c33 -91 93 -184 153 -236 44 -39 134 -81 173 -81 18 0 20 -7 20 -78 0 -85
-14 -117 -53 -125 -12 -2 41 -5 118 -5 77 0 133 2 125 5 -46 17 -50 30 -50
170 l0 133 140 0 c162 0 194 -10 209 -63 7 -25 9 -7 9 78 0 61 -3 101 -6 90
-22 -67 -44 -75 -211 -75 l-141 0 0 140 0 140 91 0 c75 0 116 -8 137 -26 2 -1
10 -20 17 -41 14 -38 14 -38 15 41 l0 79 -31 -7 c-17 -3 -124 -6 -238 -6 -185
-1 -203 -2 -174 -15 19 -8 35 -23 38 -37 3 -13 4 -97 3 -188 l-3 -165 -50 50
c-62 62 -110 154 -210 400 -42 105 -89 214 -103 243 -33 68 -91 135 -136 156
-41 19 -130 20 -171 1z m238 -335 c20 -52 39 -103 43 -112 6 -16 -3 -18 -91
-18 -88 0 -97 2 -91 18 34 89 92 219 97 214 3 -4 22 -50 42 -102z"/>
<path d="M1131 3029 c-6 -18 -9 -34 -7 -36 2 -2 9 10 15 28 6 18 9 34 7 36 -2
2 -9 -10 -15 -28z"/>
<path d="M1150 3025 c0 -5 5 -17 10 -25 5 -8 10 -10 10 -5 0 6 -5 17 -10 25
-5 8 -10 11 -10 5z"/>
<path d="M1140 2995 c0 -5 5 -17 10 -25 5 -8 10 -10 10 -5 0 6 -5 17 -10 25
-5 8 -10 11 -10 5z"/>
<path d="M1130 2965 c0 -5 5 -17 10 -25 5 -8 10 -10 10 -5 0 6 -5 17 -10 25
-5 8 -10 11 -10 5z"/>
<path d="M1091 2904 c0 -11 3 -14 6 -6 3 7 2 16 -1 19 -3 4 -6 -2 -5 -13z"/>
<path d="M1081 2864 c0 -11 3 -14 6 -6 3 7 2 16 -1 19 -3 4 -6 -2 -5 -13z"/>
<path d="M1121 2864 c0 -11 3 -14 6 -6 3 7 2 16 -1 19 -3 4 -6 -2 -5 -13z"/>
<path d="M1141 2864 c0 -11 3 -14 6 -6 3 7 2 16 -1 19 -3 4 -6 -2 -5 -13z"/>
<path d="M3585 2859 c-27 -11 -51 -22 -53 -23 -7 -8 22 -66 34 -66 11 0 12 4
4 19 -14 28 -15 26 40 50 28 12 48 26 45 31 -8 13 -11 12 -70 -11z"/>
<path d="M1071 2824 c0 -11 3 -14 6 -6 3 7 2 16 -1 19 -3 4 -6 -2 -5 -13z"/>
<path d="M1091 2814 c0 -11 3 -14 6 -6 3 7 2 16 -1 19 -3 4 -6 -2 -5 -13z"/>
<path d="M1152 2810 c0 -14 2 -19 5 -12 2 6 2 18 0 25 -3 6 -5 1 -5 -13z"/>
<path d="M1062 2780 c0 -14 2 -19 5 -12 2 6 2 18 0 25 -3 6 -5 1 -5 -13z"/>
<path d="M1182 2770 c0 -19 2 -27 5 -17 2 9 2 25 0 35 -3 9 -5 1 -5 -18z"/>
<path d="M1081 2764 c0 -11 3 -14 6 -6 3 7 2 16 -1 19 -3 4 -6 -2 -5 -13z"/>
<path d="M1101 2764 c0 -11 3 -14 6 -6 3 7 2 16 -1 19 -3 4 -6 -2 -5 -13z"/>
<path d="M1121 2764 c0 -11 3 -14 6 -6 3 7 2 16 -1 19 -3 4 -6 -2 -5 -13z"/>
<path d="M1142 2755 c0 -16 2 -22 5 -12 2 9 2 23 0 30 -3 6 -5 -1 -5 -18z"/>
<path d="M1161 2764 c0 -11 3 -14 6 -6 3 7 2 16 -1 19 -3 4 -6 -2 -5 -13z"/>
<path d="M1052 2715 c0 -16 2 -22 5 -12 2 9 2 23 0 30 -3 6 -5 -1 -5 -18z"/>
<path d="M1197 2732 c-5 -7 -6 -32 -2 -55 9 -55 -3 -43 -14 14 -14 80 -26
-121 -12 -211 7 -41 10 -102 8 -135 -3 -33 -3 -50 0 -37 4 19 7 21 19 11 11
-9 13 -24 9 -58 -5 -34 -4 -42 4 -31 9 13 11 12 11 -5 0 -15 2 -17 9 -6 10 16
31 6 31 -14 0 -8 -5 -17 -11 -21 -8 -4 -9 1 -4 17 4 13 4 21 0 17 -11 -11 -15
-59 -4 -52 5 3 9 -1 9 -8 0 -10 2 -10 9 1 7 11 9 11 14 0 3 -9 6 -10 6 -2 1 6
-3 14 -8 17 -5 4 -5 21 1 43 21 82 21 86 9 79 -6 -4 -9 -11 -6 -16 7 -11 -5
-40 -16 -40 -4 0 -6 8 -2 18 5 14 3 13 -11 -3 l-17 -20 5 20 c2 11 7 37 11 58
3 21 10 35 16 32 5 -4 6 -11 3 -17 -5 -7 -2 -8 6 -3 7 4 16 2 21 -6 6 -10 8
-8 6 8 0 12 -6 21 -12 20 -5 -1 -9 4 -7 12 2 8 -3 11 -12 8 -9 -4 -16 1 -19
11 -2 9 -4 3 -4 -14 0 -48 -11 -59 -34 -33 -12 14 -18 35 -18 58 l2 36 7 -40
c5 -30 8 -34 10 -15 2 24 3 24 10 -5 8 -30 8 -30 9 8 1 23 -3 36 -9 32 -5 -3
-10 3 -10 14 0 10 -5 21 -11 23 -9 3 -9 21 -3 63 l8 60 7 -60 6 -60 0 60 c1
101 -11 241 -20 227z m-8 -175 c1 -30 -3 -46 -9 -42 -5 3 -10 36 -9 73 1 77
16 51 18 -31z m37 -293 c-4 -9 -9 -15 -11 -12 -3 3 -3 13 1 22 4 9 9 15 11 12
3 -3 3 -13 -1 -22z"/>
<path d="M1072 2705 c0 -16 2 -22 5 -12 2 9 2 23 0 30 -3 6 -5 -1 -5 -18z"/>
<path d="M1092 2700 c0 -14 2 -19 5 -12 2 6 2 18 0 25 -3 6 -5 1 -5 -13z"/>
<path d="M1112 2700 c0 -14 2 -19 5 -12 2 6 2 18 0 25 -3 6 -5 1 -5 -13z"/>
<path d="M1133 2685 c0 -22 2 -30 4 -17 2 12 2 30 0 40 -3 9 -5 -1 -4 -23z"/>
<path d="M1152 2690 c0 -14 2 -19 5 -12 2 6 2 18 0 25 -3 6 -5 1 -5 -13z"/>
<path d="M1262 2670 c0 -14 2 -19 5 -12 2 6 2 18 0 25 -3 6 -5 1 -5 -13z"/>
<path d="M1043 2630 c0 -25 2 -35 4 -22 2 12 2 32 0 45 -2 12 -4 2 -4 -23z"/>
<path d="M1063 2610 c0 -25 2 -35 4 -22 2 12 2 32 0 45 -2 12 -4 2 -4 -23z"/>
<path d="M1084 2500 c0 -80 2 -112 3 -72 2 39 2 105 0 145 -1 39 -3 7 -3 -73z"/>
<path d="M1104 2500 c0 -80 2 -112 3 -72 2 39 2 105 0 145 -1 39 -3 7 -3 -73z"/>
<path d="M1124 2505 c0 -77 2 -107 3 -67 2 40 2 103 0 140 -2 37 -3 4 -3 -73z"/>
<path d="M3667 2615 c-52 -14 -64 -21 -54 -31 12 -12 127 18 127 32 0 17 -10
16 -73 -1z"/>
<path d="M1142 2595 c0 -16 2 -22 5 -12 2 9 2 23 0 30 -3 6 -5 -1 -5 -18z"/>
<path d="M1144 2475 c0 -49 1 -71 3 -48 2 23 2 64 0 90 -2 26 -3 8 -3 -42z"/>
<path d="M1063 2410 c0 -36 2 -50 4 -32 2 17 2 47 0 65 -2 17 -4 3 -4 -33z"/>
<path d="M1251 2454 c0 -11 3 -14 6 -6 3 7 2 16 -1 19 -3 4 -6 -2 -5 -13z"/>
<path d="M1043 2395 c0 -33 2 -45 4 -27 2 18 2 45 0 60 -2 15 -4 0 -4 -33z"/>
<path d="M1162 2415 c0 -16 2 -22 5 -12 2 9 2 23 0 30 -3 6 -5 -1 -5 -18z"/>
<path d="M1273 2413 c1 -18 6 -28 10 -24 4 4 3 18 -2 32 -9 23 -9 22 -8 -8z"/>
<path d="M1251 2414 c0 -11 3 -14 6 -6 3 7 2 16 -1 19 -3 4 -6 -2 -5 -13z"/>
<path d="M3677 2399 c-67 -39 -15 -147 57 -119 49 18 59 68 21 105 -26 27 -49
31 -78 14z m63 -34 c26 -32 -13 -81 -47 -59 -35 22 -23 74 17 74 10 0 23 -7
30 -15z"/>
<path d="M1132 2310 c0 -19 2 -27 5 -17 2 9 2 25 0 35 -3 9 -5 1 -5 -18z"/>
<path d="M1152 2315 c0 -16 2 -22 5 -12 2 9 2 23 0 30 -3 6 -5 -1 -5 -18z"/>
<path d="M1112 2300 c0 -19 2 -27 5 -17 2 9 2 25 0 35 -3 9 -5 1 -5 -18z"/>
<path d="M1312 2310 c0 -14 2 -19 5 -12 2 6 2 18 0 25 -3 6 -5 1 -5 -13z"/>
<path d="M1052 2290 c0 -19 2 -27 5 -17 2 9 2 25 0 35 -3 9 -5 1 -5 -18z"/>
<path d="M1072 2295 c0 -16 2 -22 5 -12 2 9 2 23 0 30 -3 6 -5 -1 -5 -18z"/>
<path d="M1092 2295 c0 -16 2 -22 5 -12 2 9 2 23 0 30 -3 6 -5 -1 -5 -18z"/>
<path d="M1191 2294 c0 -11 3 -14 6 -6 3 7 2 16 -1 19 -3 4 -6 -2 -5 -13z"/>
<path d="M1301 2264 c0 -11 3 -14 6 -6 3 7 2 16 -1 19 -3 4 -6 -2 -5 -13z"/>
<path d="M1142 2235 c0 -16 2 -22 5 -12 2 9 2 23 0 30 -3 6 -5 -1 -5 -18z"/>
<path d="M1162 2240 c0 -14 2 -19 5 -12 2 6 2 18 0 25 -3 6 -5 1 -5 -13z"/>
<path d="M1062 2225 c0 -16 2 -22 5 -12 2 9 2 23 0 30 -3 6 -5 -1 -5 -18z"/>
<path d="M1082 2230 c0 -14 2 -19 5 -12 2 6 2 18 0 25 -3 6 -5 1 -5 -13z"/>
<path d="M1102 2230 c0 -14 2 -19 5 -12 2 6 2 18 0 25 -3 6 -5 1 -5 -13z"/>
<path d="M1122 2230 c0 -14 2 -19 5 -12 2 6 2 18 0 25 -3 6 -5 1 -5 -13z"/>
<path d="M1181 2234 c0 -11 3 -14 6 -6 3 7 2 16 -1 19 -3 4 -6 -2 -5 -13z"/>
<path d="M1302 2221 c-11 -7 -11 -9 2 -14 10 -4 16 -1 16 8 0 17 -1 17 -18 6z"/>
<path d="M1326 2194 c-4 -14 -5 -28 -3 -31 3 -2 8 8 11 23 4 14 5 28 3 31 -3
2 -8 -8 -11 -23z"/>
<path d="M1152 2180 c0 -14 2 -19 5 -12 2 6 2 18 0 25 -3 6 -5 1 -5 -13z"/>
<path d="M1171 2184 c0 -11 3 -14 6 -6 3 7 2 16 -1 19 -3 4 -6 -2 -5 -13z"/>
<path d="M1071 2174 c0 -11 3 -14 6 -6 3 7 2 16 -1 19 -3 4 -6 -2 -5 -13z"/>
<path d="M1091 2174 c0 -11 3 -14 6 -6 3 7 2 16 -1 19 -3 4 -6 -2 -5 -13z"/>
<path d="M1111 2174 c0 -11 3 -14 6 -6 3 7 2 16 -1 19 -3 4 -6 -2 -5 -13z"/>
<path d="M1131 2174 c0 -11 3 -14 6 -6 3 7 2 16 -1 19 -3 4 -6 -2 -5 -13z"/>
<path d="M1295 2181 c-3 -5 -1 -12 5 -16 5 -3 10 1 10 9 0 18 -6 21 -15 7z"/>
<path d="M1336 2157 c-9 -33 -6 -45 4 -19 5 12 15 22 21 22 9 0 9 -4 0 -14 -9
-11 -9 -16 1 -22 7 -4 10 -4 6 1 -4 4 -3 14 3 21 8 9 5 15 -9 23 -17 9 -21 7
-26 -12z"/>
<path d="M1081 2134 c0 -11 3 -14 6 -6 3 7 2 16 -1 19 -3 4 -6 -2 -5 -13z"/>
<path d="M1101 2134 c0 -11 3 -14 6 -6 3 7 2 16 -1 19 -3 4 -6 -2 -5 -13z"/>
<path d="M1121 2134 c0 -11 3 -14 6 -6 3 7 2 16 -1 19 -3 4 -6 -2 -5 -13z"/>
<path d="M1141 2134 c0 -11 3 -14 6 -6 3 7 2 16 -1 19 -3 4 -6 -2 -5 -13z"/>
<path d="M1161 2134 c0 -11 3 -14 6 -6 3 7 2 16 -1 19 -3 4 -6 -2 -5 -13z"/>
<path d="M1295 2142 c3 -3 -1 -12 -8 -20 -10 -13 -9 -14 1 -8 9 6 11 1 8 -19
-3 -15 -3 -25 1 -22 3 4 19 -7 35 -24 16 -16 34 -27 39 -23 5 3 9 0 9 -7 0 -7
6 -4 14 7 8 10 12 21 10 24 -3 2 -10 -2 -15 -10 -8 -11 -9 -7 -5 15 5 22 4 26
-4 15 -5 -8 -10 -11 -10 -6 0 5 -7 3 -15 -4 -12 -10 -15 -10 -15 4 0 9 -6 15
-12 14 -9 -2 -12 9 -11 33 1 25 -2 36 -12 36 -8 0 -13 -3 -10 -5z m72 -97 c0
-8 -4 -12 -9 -9 -5 3 -6 10 -3 15 9 13 12 11 12 -6z"/>
<path d="M1261 2124 c0 -11 3 -14 6 -6 3 7 2 16 -1 19 -3 4 -6 -2 -5 -13z"/>
<path d="M1413 2097 c-12 -27 7 -63 29 -54 11 4 11 6 0 6 -7 1 -10 6 -6 13 4
6 3 8 -4 4 -6 -3 -13 -2 -17 4 -3 5 -1 10 5 10 6 0 9 4 6 9 -4 5 -1 11 6 13 8
3 9 6 1 11 -5 3 -15 -4 -20 -16z"/>
<path d="M1091 2094 c0 -11 3 -14 6 -6 3 7 2 16 -1 19 -3 4 -6 -2 -5 -13z"/>
<path d="M1111 2094 c0 -11 3 -14 6 -6 3 7 2 16 -1 19 -3 4 -6 -2 -5 -13z"/>
<path d="M1131 2094 c0 -11 3 -14 6 -6 3 7 2 16 -1 19 -3 4 -6 -2 -5 -13z"/>
<path d="M1151 2094 c0 -11 3 -14 6 -6 3 7 2 16 -1 19 -3 4 -6 -2 -5 -13z"/>
<path d="M1171 2094 c0 -11 3 -14 6 -6 3 7 2 16 -1 19 -3 4 -6 -2 -5 -13z"/>
<path d="M1340 2100 c0 -5 5 -10 11 -10 5 0 7 5 4 10 -3 6 -8 10 -11 10 -2 0
-4 -4 -4 -10z"/>
<path d="M1151 2033 c-1 -6 -4 -20 -7 -30 -5 -15 -4 -15 5 -3 9 12 11 13 11 1
0 -8 2 -12 5 -9 3 3 1 16 -4 29 -5 13 -10 19 -10 12z"/>
<path d="M1420 2003 c0 -7 -7 -10 -17 -7 -15 5 -15 4 -3 -4 8 -6 18 -8 22 -6
4 3 8 0 8 -7 0 -7 3 -10 6 -6 3 3 1 14 -5 24 -6 10 -11 13 -11 6z"/>
<path d="M1130 1975 c0 -5 4 -16 9 -23 6 -11 10 -10 15 4 3 9 4 19 1 22 -3 3
-5 -1 -5 -9 0 -11 -2 -11 -10 1 -5 8 -10 11 -10 5z"/>
<path d="M1475 1960 c-10 -16 13 -39 23 -24 4 6 15 10 25 8 9 -1 15 1 12 6 -3
5 -13 7 -23 6 -9 -2 -20 1 -23 6 -4 6 -9 5 -14 -2z"/>
<path d="M1175 1930 c-6 -18 -9 -20 -16 -9 -5 8 -9 10 -9 4 0 -5 4 -16 9 -24
7 -11 10 -9 16 9 5 15 10 19 15 10 5 -8 9 -7 14 6 3 9 4 19 1 22 -3 3 -5 -1
-5 -9 0 -12 -2 -12 -9 0 -7 11 -10 9 -16 -9z"/>
<path d="M1220 1945 c0 -5 4 -16 9 -23 6 -11 10 -10 15 4 3 9 4 19 1 22 -3 3
-5 -1 -5 -9 0 -11 -2 -11 -10 1 -5 8 -10 11 -10 5z"/>
<path d="M1230 1870 c-8 -19 -16 -27 -20 -20 -5 8 -9 7 -13 -5 -5 -11 -3 -14
5 -9 8 5 9 2 5 -10 -5 -11 -3 -15 5 -10 7 5 9 2 6 -8 -5 -12 2 -14 33 -13 31
2 39 -1 35 -12 -4 -9 -1 -11 6 -7 8 5 9 2 5 -9 -4 -10 -2 -16 5 -14 6 1 12 -3
14 -8 3 -6 -7 -11 -21 -11 -16 0 -24 5 -21 12 3 8 -2 11 -15 9 -14 -3 -19 0
-16 9 3 7 -1 13 -9 13 -10 0 -8 -10 10 -40 22 -39 50 -55 61 -37 3 5 -4 7 -15
5 -13 -3 -20 0 -18 7 3 7 16 13 30 13 20 2 26 -3 26 -21 0 -13 -4 -21 -9 -19
-4 3 -10 1 -14 -5 -4 -6 -11 -7 -17 -4 -6 4 -8 2 -4 -4 3 -6 16 -9 27 -7 13 3
19 0 16 -8 -3 -7 -11 -11 -18 -9 -8 2 -10 0 -6 -5 5 -4 14 -8 19 -8 6 0 13 -6
16 -14 3 -9 0 -11 -9 -5 -8 4 2 -12 22 -37 36 -44 54 -53 75 -37 6 4 34 -17
69 -52 33 -33 55 -60 50 -60 -4 0 1 -10 12 -22 11 -13 19 -31 18 -40 -2 -9 7
-25 18 -35 12 -10 17 -11 10 -3 -18 24 -19 26 -5 43 9 10 10 17 2 22 -6 3 -8
11 -4 16 3 6 12 3 19 -8 9 -12 10 -22 4 -30 -7 -7 -6 -13 0 -17 5 -4 8 -15 6
-26 -2 -10 4 -25 13 -32 15 -11 16 -11 4 4 -16 21 2 35 23 18 14 -11 19 -7 16
13 -1 9 13 9 22 0 4 -3 2 -12 -4 -19 -7 -8 -7 -14 1 -19 5 -3 11 -4 11 -1 1 3
2 9 3 14 1 4 5 12 9 19 4 6 3 14 -3 18 -5 3 -10 4 -10 2 0 -3 -17 10 -37 29
-20 19 -39 32 -41 29 -3 -2 -13 7 -24 20 -11 14 -23 23 -27 21 -13 -8 -79 68
-76 86 4 21 -11 33 -40 33 -22 0 -28 30 -11 54 9 12 8 13 -4 6 -21 -13 -101
-14 -97 -1 2 6 18 11 35 10 25 0 29 2 21 13 -6 7 -15 10 -20 7 -13 -8 -11 10
3 24 9 9 6 11 -10 7 -24 -4 -28 5 -10 23 9 9 6 11 -11 7 -17 -3 -21 0 -17 11
4 10 2 13 -6 8 -8 -5 -9 -2 -5 9 4 10 2 16 -6 14 -7 -1 -11 6 -11 15 1 10 -3
15 -9 11 -6 -4 -8 0 -4 11 5 11 3 15 -5 10 -8 -5 -9 -2 -5 10 4 11 3 15 -4 10
-7 -4 -9 1 -5 17 3 13 3 18 0 10 -5 -10 -12 -5 -24 18 l-17 33 -13 -32z m49
-65 c1 -5 -4 -3 -9 5 -9 13 -10 13 -10 0 0 -13 -1 -13 -10 0 -9 13 -10 13 -10
0 -1 -12 -2 -12 -10 2 -7 11 -6 25 2 43 l12 26 17 -33 c10 -18 18 -37 18 -43z
m-15 -71 c3 -8 2 -12 -4 -9 -6 3 -10 10 -10 16 0 14 7 11 14 -7z m92 -43 c0
-9 4 -15 9 -14 6 1 11 -7 11 -17 0 -11 -2 -17 -5 -15 -2 3 -10 0 -18 -6 -15
-13 -14 -15 -17 32 -1 21 3 36 10 36 6 0 11 -7 10 -16z m76 -103 c-3 -19 15
-33 43 -33 14 0 20 -7 20 -21 0 -11 7 -29 14 -40 8 -10 -6 1 -31 24 -25 24
-48 39 -52 34 -11 -18 -39 -6 -63 24 l-23 30 48 -1 c38 -1 46 -4 44 -17z m148
-154 c0 4 5 4 11 0 8 -4 8 -9 0 -17 -7 -7 -7 -14 0 -23 7 -8 6 -14 -3 -20 -7
-4 -10 -3 -5 1 4 5 -3 19 -15 32 -12 13 -18 23 -14 23 5 0 2 8 -5 18 -11 14
-10 13 9 -2 12 -11 22 -16 22 -12z m90 -70 c0 4 5 4 10 1 8 -5 8 -11 1 -19 -6
-7 -7 -17 -3 -22 4 -4 -1 -2 -10 5 -9 7 -23 9 -29 5 -7 -4 -9 -3 -5 4 3 6 2
14 -4 17 -8 5 -8 11 -1 19 6 7 10 15 8 17 -1 3 6 -4 16 -14 9 -11 17 -16 17
-13z"/>
<path d="M1236 1844 c-3 -9 -4 -19 -1 -22 3 -3 5 1 5 9 0 11 2 11 10 -1 5 -8
10 -10 10 -5 0 6 -4 16 -9 23 -6 11 -10 10 -15 -4z"/>
<path d="M1344 1660 c0 -13 4 -16 10 -10 7 7 7 13 0 20 -6 6 -10 3 -10 -10z"/>
<path d="M1373 1577 c15 -23 44 -31 54 -15 3 6 1 8 -5 4 -6 -3 -13 -2 -17 4
-4 6 -11 7 -17 4 -7 -5 -9 -2 -6 8 4 9 0 15 -8 15 -12 0 -12 -4 -1 -20z"/>
<path d="M1406 1588 c3 -5 10 -6 15 -3 13 9 11 12 -6 12 -8 0 -12 -4 -9 -9z"/>
<path d="M1460 1545 c0 -2 6 -8 13 -14 10 -8 14 -7 14 2 0 8 -6 14 -14 14 -7
0 -13 -1 -13 -2z"/>
<path d="M1566 1418 c3 -5 10 -6 15 -3 13 9 11 12 -6 12 -8 0 -12 -4 -9 -9z"/>
<path d="M1635 1371 c-3 -5 -2 -12 3 -15 5 -3 9 1 9 9 0 17 -3 19 -12 6z"/>
<path d="M1397 1721 c-10 -14 -10 -14 4 -4 9 7 18 10 21 7 3 -3 8 -1 12 4 9
16 -24 9 -37 -7z"/>
<path d="M1419 1693 c-13 -16 -12 -17 4 -4 9 7 17 15 17 17 0 8 -8 3 -21 -13z"/>
<path d="M1445 1670 c-4 -6 -11 -7 -17 -4 -7 4 -8 2 -4 -5 6 -9 11 -9 22 0 14
11 18 19 10 19 -3 0 -8 -5 -11 -10z"/>
<path d="M1481 1656 c-8 -10 -9 -16 -1 -21 5 -3 10 -5 11 -3 4 18 7 38 4 38
-1 0 -8 -6 -14 -14z"/>
<path d="M3485 1640 c3 -5 11 -10 16 -10 6 0 7 5 4 10 -3 6 -11 10 -16 10 -6
0 -7 -4 -4 -10z"/>
<path d="M3415 1609 c-27 -10 -38 -17 -23 -14 35 7 78 23 78 30 0 3 -1 5 -2 4
-2 0 -25 -9 -53 -20z"/>
<path d="M1501 1606 c-8 -10 -9 -16 -1 -21 5 -3 10 -5 11 -3 4 18 7 38 4 38
-1 0 -8 -6 -14 -14z"/>
<path d="M2056 1573 c7 -41 60 -133 76 -133 5 0 6 -4 3 -10 -3 -6 1 -7 10 -4
11 5 14 2 8 -12 -4 -12 -3 -15 5 -10 7 4 12 3 12 -3 0 -6 8 -7 18 -4 15 6 16
5 2 -13 -8 -10 -10 -16 -5 -11 4 4 17 0 27 -10 11 -9 18 -11 18 -5 0 7 4 12
10 12 5 0 7 -6 4 -13 -3 -8 2 -20 11 -27 13 -11 18 -10 33 4 23 20 39 21 22 1
-7 -8 -9 -15 -5 -15 4 0 14 8 21 18 9 10 17 13 21 7 8 -11 39 -16 86 -16 15 0
25 -4 22 -9 -4 -6 -2 -10 3 -10 6 0 12 7 16 15 3 8 10 15 16 15 6 0 8 -4 5
-10 -9 -14 8 -13 23 2 7 7 12 8 12 2 0 -5 -5 -15 -12 -22 -7 -7 -9 -12 -6 -12
4 0 14 7 22 16 19 19 71 30 61 13 -4 -6 5 -3 21 7 15 11 25 13 21 7 -13 -20
11 -15 23 5 11 16 11 16 6 0 -7 -23 10 -23 23 -1 5 10 13 15 17 11 4 -5 13 -3
21 3 7 6 13 8 13 4 0 -5 9 0 20 10 18 16 20 16 15 2 -4 -9 -17 -19 -28 -23
-12 -3 -41 -15 -63 -25 -23 -10 -60 -21 -83 -25 -23 -4 -44 -11 -47 -15 -3 -5
-9 -7 -13 -5 -4 3 -31 -1 -60 -9 -35 -9 -97 -13 -189 -11 -124 2 -146 5 -230
34 -51 18 -117 44 -145 58 -44 21 -48 22 -27 4 l25 -20 -48 20 c-49 20 -57 8
-8 -14 14 -6 46 -23 71 -38 91 -54 356 -103 428 -79 29 10 44 10 60 2 15 -8
23 -8 27 0 4 6 18 8 34 4 25 -6 26 -6 6 10 l-20 17 20 -7 c11 -4 39 -14 63
-22 46 -16 71 -10 31 7 -20 9 -18 9 16 5 29 -4 36 -3 25 4 -8 6 -26 11 -40 12
-17 1 -19 3 -7 6 9 2 17 9 17 14 0 5 5 9 11 9 5 0 7 -5 3 -12 -5 -7 -3 -8 6
-3 7 4 16 2 21 -6 8 -12 10 -12 18 0 6 9 26 14 53 14 l43 -1 -35 8 c-20 5 -42
4 -52 -1 -12 -6 -18 -6 -18 1 0 9 6 11 43 14 6 1 15 5 18 9 3 4 19 9 35 11 18
1 28 7 26 15 -2 9 3 11 15 7 9 -4 14 -4 11 0 -4 4 -3 15 3 26 6 11 9 22 7 24
-3 2 -49 -7 -104 -21 -122 -30 -298 -35 -385 -9 -122 36 -204 103 -234 193
-20 60 -29 66 -19 14z m224 -228 c-7 -8 -16 -12 -21 -9 -13 8 -1 24 18 24 13
0 13 -3 3 -15z m269 -91 c10 -9 -35 -3 -49 6 -11 8 -7 9 15 4 17 -4 32 -8 34
-10z"/>
<path d="M1546 1562 c-3 -5 21 -33 52 -63 l57 -54 -47 50 c-26 28 -47 54 -47
58 1 13 -8 19 -15 9z"/>
<path d="M3071 1523 c-6 -10 -11 -14 -11 -10 0 4 -35 -10 -77 -32 -43 -21 -88
-42 -101 -46 -12 -4 -19 -11 -16 -17 4 -7 2 -8 -5 -4 -17 11 -48 -2 -54 -24
-8 -33 25 -29 73 9 25 20 39 28 31 18 -8 -10 -9 -17 -3 -17 6 0 14 5 17 10 3
6 15 10 26 10 10 0 19 4 19 9 0 13 51 61 60 56 4 -3 11 2 14 11 5 13 9 14 21
4 8 -7 15 -11 16 -9 3 15 5 49 3 49 -2 0 -8 -8 -13 -17z"/>
<path d="M1400 1518 c0 -2 35 -37 77 -78 42 -41 71 -67 64 -57 -8 9 -10 17 -6
17 5 0 0 9 -10 20 -10 11 -14 20 -10 20 5 0 -6 15 -24 34 -18 19 -40 33 -49
31 -10 -1 -23 2 -29 8 -7 5 -13 8 -13 5z m85 -48 c14 -13 23 -26 20 -28 -3 -3
2 -14 12 -24 34 -38 5 -16 -41 31 -48 49 -40 67 9 21z"/>
<path d="M1470 1465 c13 -14 26 -25 28 -25 3 0 -5 11 -18 25 -13 14 -26 25
-28 25 -3 0 5 -11 18 -25z"/>
<path d="M3220 1480 c8 -5 20 -10 25 -10 6 0 3 5 -5 10 -8 5 -19 10 -25 10 -5
0 -3 -5 5 -10z"/>
<path d="M3016 1462 c-2 -4 4 -9 15 -9 11 -1 17 2 14 8 -7 11 -22 12 -29 1z"/>
<path d="M3300 1440 c-8 -5 -10 -10 -5 -10 6 0 17 5 25 10 8 5 11 10 5 10 -5
0 -17 -5 -25 -10z"/>
<path d="M3035 1420 c-8 -13 5 -13 25 0 13 8 13 10 -2 10 -9 0 -20 -4 -23 -10z"/>
<path d="M1710 1382 c6 -12 15 -20 19 -17 5 3 12 -2 15 -11 3 -8 10 -13 15
-10 5 4 11 2 13 -3 4 -10 99 -53 105 -47 3 2 -5 7 -16 11 -12 3 -21 11 -21 16
0 10 -46 32 -70 33 -8 0 -20 7 -27 16 -7 8 -13 11 -13 6 0 -6 -7 -1 -16 10
-14 18 -15 18 -4 -4z"/>
<path d="M2872 1375 c-17 -20 5 -20 24 0 12 11 12 15 2 15 -7 -1 -19 -7 -26
-15z"/>
<path d="M2978 1363 c7 -3 16 -2 19 1 4 3 -2 6 -13 5 -11 0 -14 -3 -6 -6z"/>
<path d="M3130 1345 c-36 -13 -60 -24 -54 -24 19 -2 113 29 119 39 3 6 5 10 3
9 -2 0 -32 -11 -68 -24z"/>
<path d="M2795 1350 c4 -7 2 -16 -6 -21 -11 -7 -9 -9 8 -9 23 0 26 31 3 38 -8
3 -10 0 -5 -8z"/>
<path d="M2847 1330 c-19 -22 -5 -28 15 -7 7 8 22 12 33 10 20 -3 20 -3 0 6
-28 13 -29 13 -48 -9z"/>
<path d="M3038 1333 c7 -3 16 -2 19 1 4 3 -2 6 -13 5 -11 0 -14 -3 -6 -6z"/>
<path d="M1739 1328 c-1 -5 -2 -11 -3 -15 -1 -5 -4 -13 -8 -19 -10 -15 1 -24
20 -17 11 5 13 3 7 -7 -6 -9 -4 -11 4 -6 7 5 10 11 7 14 -3 3 0 12 6 21 7 9 8
13 4 9 -5 -4 -15 0 -22 10 -7 9 -14 14 -15 10z m21 -32 c0 -2 -7 -7 -16 -10
-8 -3 -12 -2 -9 4 6 10 25 14 25 6z"/>
<path d="M2555 1320 c-3 -5 -1 -10 4 -10 6 0 11 5 11 10 0 6 -2 10 -4 10 -3 0
-8 -4 -11 -10z"/>
<path d="M3000 1308 c-19 -5 -52 -14 -74 -19 -21 -6 -36 -12 -34 -14 4 -4 160
34 167 41 7 6 -21 3 -59 -8z"/>
<path d="M2835 1301 c-20 -8 -20 -8 1 -15 12 -3 32 -2 45 3 13 5 19 10 12 10
-6 1 -17 3 -25 5 -7 3 -22 1 -33 -3z"/>
<path d="M2918 1303 c7 -3 16 -2 19 1 4 3 -2 6 -13 5 -11 0 -14 -3 -6 -6z"/>
<path d="M1665 1291 c-3 -5 -2 -12 3 -15 5 -3 9 1 9 9 0 17 -3 19 -12 6z"/>
<path d="M1785 1290 c-5 -9 -4 -11 3 -6 12 7 15 -1 15 -36 0 -10 4 -15 9 -12
5 3 7 9 4 12 -3 3 0 12 6 21 7 9 8 13 4 9 -5 -4 -14 0 -21 9 -9 13 -14 13 -20
3z"/>
<path d="M2765 1290 c3 -5 11 -10 16 -10 6 0 7 5 4 10 -3 6 -11 10 -16 10 -6
0 -7 -4 -4 -10z"/>
<path d="M1695 1271 c-3 -5 -2 -12 3 -15 5 -3 9 1 9 9 0 17 -3 19 -12 6z"/>
<path d="M2825 1270 c19 -8 18 -9 -4 -9 -13 -1 -22 -4 -19 -7 3 -3 23 -2 44 2
36 7 37 8 14 15 -36 10 -59 10 -35 -1z"/>
<path d="M1965 1260 c-3 -6 1 -7 9 -4 18 7 21 14 7 14 -6 0 -13 -4 -16 -10z"/>
<path d="M2700 1263 c8 -2 25 -9 37 -15 11 -6 27 -8 35 -5 8 3 6 6 -7 7 -17 2
-16 3 5 9 18 6 10 8 -30 8 -30 1 -48 -1 -40 -4z"/>
<path d="M2685 1243 c52 -8 46 -18 -8 -16 l-52 2 45 -9 c25 -4 57 -5 73 -3
l28 6 -27 13 c-14 8 -40 13 -58 13 l-31 -2 30 -4z"/>
<path d="M3018 1243 c7 -3 16 -2 19 1 4 3 -2 6 -13 5 -11 0 -14 -3 -6 -6z"/>
<path d="M2978 1233 c7 -3 16 -2 19 1 4 3 -2 6 -13 5 -11 0 -14 -3 -6 -6z"/>
<path d="M2095 1220 c-3 -5 -1 -10 4 -10 6 0 11 5 11 10 0 6 -2 10 -4 10 -3 0
-8 -4 -11 -10z"/>
<path d="M3100 1220 c12 -8 12 -10 1 -10 -8 0 -12 -2 -9 -5 3 -3 13 -2 22 1
14 5 15 9 4 15 -7 5 -17 9 -23 9 -5 0 -3 -5 5 -10z"/>
<path d="M1946 1211 c-9 -14 26 -23 38 -11 8 8 6 9 -8 4 -13 -5 -17 -4 -12 4
4 7 3 12 -3 12 -5 0 -12 -4 -15 -9z"/>
<path d="M2128 1204 c-37 -19 -36 -25 2 -11 17 6 30 15 30 19 0 10 0 10 -32
-8z"/>
<path d="M2540 1210 c-13 -8 -12 -10 3 -10 9 0 17 5 17 10 0 12 -1 12 -20 0z"/>
<path d="M2908 1213 c7 -3 16 -2 19 1 4 3 -2 6 -13 5 -11 0 -14 -3 -6 -6z"/>
<path d="M2195 1200 c-8 -13 5 -13 25 0 13 8 13 10 -2 10 -9 0 -20 -4 -23 -10z"/>
<path d="M2643 1203 c9 -2 23 -2 30 0 6 3 -1 5 -18 5 -16 0 -22 -2 -12 -5z"/>
<path d="M2748 1203 c6 -2 18 -2 25 0 6 3 1 5 -13 5 -14 0 -19 -2 -12 -5z"/>
<path d="M2858 1203 c6 -2 18 -2 25 0 6 3 1 5 -13 5 -14 0 -19 -2 -12 -5z"/>
<path d="M2000 1190 c-9 -6 -10 -10 -3 -10 6 0 15 5 18 10 8 12 4 12 -15 0z"/>
<path d="M2358 1193 c17 -2 47 -2 65 0 17 2 3 4 -33 4 -36 0 -50 -2 -32 -4z"/>
<path d="M2680 1191 c-24 -7 -24 -7 9 -14 19 -4 36 -5 39 -2 3 3 -3 5 -14 6
-18 0 -18 1 1 9 24 10 1 11 -35 1z"/>
<path d="M2808 1193 c6 -2 18 -2 25 0 6 3 1 5 -13 5 -14 0 -19 -2 -12 -5z"/>
<path d="M2030 1180 c-9 -6 -10 -10 -3 -10 6 0 15 5 18 10 8 12 4 12 -15 0z"/>
<path d="M2278 1183 c7 -3 16 -2 19 1 4 3 -2 6 -13 5 -11 0 -14 -3 -6 -6z"/>
<path d="M2748 1183 c6 -2 18 -2 25 0 6 3 1 5 -13 5 -14 0 -19 -2 -12 -5z"/>
<path d="M2878 1183 c7 -3 16 -2 19 1 4 3 -2 6 -13 5 -11 0 -14 -3 -6 -6z"/>
<path d="M2065 1170 c-3 -6 1 -7 9 -4 18 7 21 14 7 14 -6 0 -13 -4 -16 -10z"/>
<path d="M2828 1173 c6 -2 18 -2 25 0 6 3 1 5 -13 5 -14 0 -19 -2 -12 -5z"/>
<path d="M2100 1160 c-8 -5 -10 -10 -5 -10 6 0 17 5 25 10 8 5 11 10 5 10 -5
0 -17 -5 -25 -10z"/>
<path d="M2458 1163 c7 -3 16 -2 19 1 4 3 -2 6 -13 5 -11 0 -14 -3 -6 -6z"/>
<path d="M2648 1163 c7 -3 16 -2 19 1 4 3 -2 6 -13 5 -11 0 -14 -3 -6 -6z"/>
<path d="M2778 1163 c6 -2 18 -2 25 0 6 3 1 5 -13 5 -14 0 -19 -2 -12 -5z"/>
<path d="M2278 1153 c7 -3 16 -2 19 1 4 3 -2 6 -13 5 -11 0 -14 -3 -6 -6z"/>
<path d="M2553 1153 c9 -2 23 -2 30 0 6 3 -1 5 -18 5 -16 0 -22 -2 -12 -5z"/>
<path d="M2848 1153 c7 -3 16 -2 19 1 4 3 -2 6 -13 5 -11 0 -14 -3 -6 -6z"/>
<path d="M2218 1143 c7 -3 16 -2 19 1 4 3 -2 6 -13 5 -11 0 -14 -3 -6 -6z"/>
<path d="M2418 1143 c7 -3 16 -2 19 1 4 3 -2 6 -13 5 -11 0 -14 -3 -6 -6z"/>
<path d="M2648 1143 c6 -2 18 -2 25 0 6 3 1 5 -13 5 -14 0 -19 -2 -12 -5z"/>
<path d="M2798 1143 c7 -3 16 -2 19 1 4 3 -2 6 -13 5 -11 0 -14 -3 -6 -6z"/>
<path d="M2178 1133 c7 -3 16 -2 19 1 4 3 -2 6 -13 5 -11 0 -14 -3 -6 -6z"/>
<path d="M2288 1133 c12 -2 30 -2 40 0 9 3 -1 5 -23 4 -22 0 -30 -2 -17 -4z"/>
<path d="M2548 1133 c12 -2 30 -2 40 0 9 3 -1 5 -23 4 -22 0 -30 -2 -17 -4z"/>
<path d="M2738 1133 c6 -2 18 -2 25 0 6 3 1 5 -13 5 -14 0 -19 -2 -12 -5z"/>
<path d="M2238 1123 c7 -3 16 -2 19 1 4 3 -2 6 -13 5 -11 0 -14 -3 -6 -6z"/>
<path d="M2663 1123 c9 -2 23 -2 30 0 6 3 -1 5 -18 5 -16 0 -22 -2 -12 -5z"/>
<path d="M2818 1123 c7 -3 16 -2 19 1 4 3 -2 6 -13 5 -11 0 -14 -3 -6 -6z"/>
<path d="M2178 1113 c7 -3 16 -2 19 1 4 3 -2 6 -13 5 -11 0 -14 -3 -6 -6z"/>
<path d="M2313 1113 c9 -2 23 -2 30 0 6 3 -1 5 -18 5 -16 0 -22 -2 -12 -5z"/>
<path d="M2578 1113 c12 -2 30 -2 40 0 9 3 -1 5 -23 4 -22 0 -30 -2 -17 -4z"/>
<path d="M2768 1113 c7 -3 16 -2 19 1 4 3 -2 6 -13 5 -11 0 -14 -3 -6 -6z"/>
<path d="M2888 1113 c7 -3 16 -2 19 1 4 3 -2 6 -13 5 -11 0 -14 -3 -6 -6z"/>
<path d="M2228 1103 c6 -2 18 -2 25 0 6 3 1 5 -13 5 -14 0 -19 -2 -12 -5z"/>
<path d="M2448 1103 c6 -2 18 -2 25 0 6 3 1 5 -13 5 -14 0 -19 -2 -12 -5z"/>
<path d="M2698 1103 c6 -2 18 -2 25 0 6 3 1 5 -13 5 -14 0 -19 -2 -12 -5z"/>
<path d="M2178 1093 c7 -3 16 -2 19 1 4 3 -2 6 -13 5 -11 0 -14 -3 -6 -6z"/>
<path d="M2293 1093 c9 -2 23 -2 30 0 6 3 -1 5 -18 5 -16 0 -22 -2 -12 -5z"/>
<path d="M2618 1093 c6 -2 18 -2 25 0 6 3 1 5 -13 5 -14 0 -19 -2 -12 -5z"/>
<path d="M2228 1083 c6 -2 18 -2 25 0 6 3 1 5 -13 5 -14 0 -19 -2 -12 -5z"/>
<path d="M2423 1083 c15 -2 37 -2 50 0 12 2 0 4 -28 4 -27 0 -38 -2 -22 -4z"/>
<path d="M2728 1083 c7 -3 16 -2 19 1 4 3 -2 6 -13 5 -11 0 -14 -3 -6 -6z"/>
<path d="M2858 1083 c7 -3 16 -2 19 1 4 3 -2 6 -13 5 -11 0 -14 -3 -6 -6z"/>
<path d="M2293 1073 c9 -2 23 -2 30 0 6 3 -1 5 -18 5 -16 0 -22 -2 -12 -5z"/>
<path d="M2653 1073 c9 -2 23 -2 30 0 6 3 -1 5 -18 5 -16 0 -22 -2 -12 -5z"/>
<path d="M2818 1073 c7 -3 16 -2 19 1 4 3 -2 6 -13 5 -11 0 -14 -3 -6 -6z"/>
<path d="M2433 1063 c32 -2 81 -2 110 0 29 2 3 3 -58 3 -60 0 -84 -1 -52 -3z"/>
<path d="M2763 1063 c9 -2 23 -2 30 0 6 3 -1 5 -18 5 -16 0 -22 -2 -12 -5z"/>
<path d="M2703 1053 c9 -2 23 -2 30 0 6 3 -1 5 -18 5 -16 0 -22 -2 -12 -5z"/>
<path d="M2838 1053 c7 -3 16 -2 19 1 4 3 -2 6 -13 5 -11 0 -14 -3 -6 -6z"/>
<path d="M2363 1043 c9 -2 23 -2 30 0 6 3 -1 5 -18 5 -16 0 -22 -2 -12 -5z"/>
<path d="M2603 1043 c15 -2 37 -2 50 0 12 2 0 4 -28 4 -27 0 -38 -2 -22 -4z"/>
<path d="M2798 1043 c7 -3 16 -2 19 1 4 3 -2 6 -13 5 -11 0 -14 -3 -6 -6z"/>
<path d="M2248 1033 c7 -3 16 -2 19 1 4 3 -2 6 -13 5 -11 0 -14 -3 -6 -6z"/>
<path d="M2668 1023 c6 -2 18 -2 25 0 6 3 1 5 -13 5 -14 0 -19 -2 -12 -5z"/>
<path d="M2463 1013 c26 -2 68 -2 95 0 26 2 4 3 -48 3 -52 0 -74 -1 -47 -3z"/>
</g>
</svg>
